<svg width="32" height="34" viewBox="0 0 32 34" fill="none" xmlns="http://www.w3.org/2000/svg">
<path d="M12.4448 0H1.7129C0.768517 0 0 0.855076 0 1.90582V13.8465C0 14.8972 0.768517 15.7523 1.7129 15.7523H12.4448C13.3892 15.7523 14.1577 14.8972 14.1577 13.8465V1.90582C14.1577 0.855076 13.3892 0 12.4448 0ZM13.2147 13.8465C13.2147 14.3191 12.8691 14.7031 12.4448 14.7031H1.7129C1.28856 14.7031 0.942966 14.3186 0.942966 13.8465V1.90582C0.942966 1.43317 1.28856 1.04917 1.7129 1.04917H12.4448C12.8696 1.04917 13.2147 1.4337 13.2147 1.90582V13.8465Z" fill="#EB1717"/>
<path d="M5.56022 3.70197L5.55975 5.29041H6.9874V12.0502H8.59752V3.70197H5.56022Z" fill="#EB1717"/>
<path d="M29.4448 0H18.7129C17.7685 0 17 0.855076 17 1.90582V13.8465C17 14.8972 17.7685 15.7523 18.7129 15.7523H29.4448C30.3892 15.7523 31.1577 14.8972 31.1577 13.8465V1.90582C31.1577 0.855076 30.3892 0 29.4448 0ZM30.2147 13.8465C30.2147 14.3191 29.8691 14.7031 29.4448 14.7031H18.7129C18.2886 14.7031 17.943 14.3186 17.943 13.8465V1.90582C17.943 1.43317 18.2886 1.04917 18.7129 1.04917H29.4448C29.8696 1.04917 30.2147 1.4337 30.2147 1.90582V13.8465Z" fill="#FAFF00"/>
<path d="M12.4448 18.1763H1.7129C0.768517 18.1763 0 19.0313 0 20.0821V32.0227C0 33.0735 0.768517 33.9286 1.7129 33.9286H12.4448C13.3892 33.9286 14.1577 33.0735 14.1577 32.0233V20.0816C14.1568 19.0308 13.3887 18.1763 12.4448 18.1763ZM13.2147 32.0233C13.2147 32.4959 12.8691 32.8799 12.4448 32.8799H1.7129C1.28809 32.8799 0.942966 32.4954 0.942966 32.0233V20.0821C0.942966 19.6094 1.28809 19.2254 1.7129 19.2254H12.4448C12.8691 19.2254 13.2147 19.61 13.2147 20.0821V32.0233Z" fill="#40C102"/>
<path d="M6.82658 28.6502L8.1788 27.0854C8.70874 26.4722 9.07131 25.9685 9.26887 25.5751C9.46547 25.1806 9.56401 24.7683 9.56401 24.3387C9.56401 23.5502 9.31837 22.9275 8.8285 22.4696C8.33816 22.0116 7.76861 21.7823 7.12126 21.7823C6.47391 21.7823 5.94019 21.9381 5.52199 22.2482C5.10331 22.5593 4.71905 23.0167 4.3678 23.6215L5.71011 24.506C6.13303 23.7574 6.58047 23.3834 7.05195 23.3834C7.30938 23.3834 7.52108 23.4768 7.68515 23.6635C7.85017 23.8508 7.93221 24.0842 7.93221 24.3623C7.93221 24.6413 7.83697 24.9299 7.64743 25.2284C7.4579 25.5268 7.14153 25.9271 6.69787 26.4286L4.49746 28.9372V30.3221H9.78985V28.6502H6.82658Z" fill="#40C102"/>
<path d="M29.2871 18.1763H18.5552C17.6103 18.1763 16.8418 19.0313 16.8418 20.0821V32.0227C16.8418 33.0735 17.6103 33.9286 18.5552 33.9286H29.2871C30.2314 33.9286 31 33.0735 31 32.0233V20.0821C31 19.0313 30.2314 18.1763 29.2871 18.1763ZM30.057 32.0233C30.057 32.4959 29.7114 32.8799 29.2871 32.8799H18.5552C18.1304 32.8799 17.7848 32.4954 17.7848 32.0233V20.0821C17.7848 19.6094 18.1308 19.2254 18.5552 19.2254H29.2871C29.7119 19.2254 30.057 19.61 30.057 20.0821V32.0233Z" fill="#0500FF"/>
<path d="M25.5781 28.7422H22.4961L21.9102 30.5H20.041L23.2168 21.9688H24.8457L28.0391 30.5H26.1699L25.5781 28.7422ZM22.9707 27.3184H25.1035L24.0312 24.125L22.9707 27.3184Z" fill="#0500FF"/>
<path d="M25.541 8.58984C25.0996 9.02344 24.584 9.24023 23.9941 9.24023C23.2402 9.24023 22.6367 8.98242 22.1836 8.4668C21.7305 7.94727 21.5039 7.24805 21.5039 6.36914C21.5039 5.81055 21.625 5.29883 21.8672 4.83398C22.1133 4.36523 22.4551 4.00195 22.8926 3.74414C23.3301 3.48242 23.8223 3.35156 24.3691 3.35156C24.9316 3.35156 25.4316 3.49219 25.8691 3.77344C26.3066 4.05469 26.6465 4.45898 26.8887 4.98633C27.1309 5.51367 27.2539 6.11719 27.2578 6.79688V7.42383C27.2578 8.8457 26.9043 9.96289 26.1973 10.7754C25.4902 11.5879 24.4883 12.0215 23.1914 12.0762L22.7754 12.082V10.6699L23.1504 10.6641C24.623 10.5977 25.4199 9.90625 25.541 8.58984ZM24.4102 7.94531C24.6836 7.94531 24.918 7.875 25.1133 7.73438C25.3125 7.59375 25.4629 7.42383 25.5645 7.22461V6.52734C25.5645 5.95312 25.4551 5.50781 25.2363 5.19141C25.0176 4.875 24.7246 4.7168 24.3574 4.7168C24.0176 4.7168 23.7383 4.87305 23.5195 5.18555C23.3008 5.49414 23.1914 5.88281 23.1914 6.35156C23.1914 6.81641 23.2969 7.19922 23.5078 7.5C23.7227 7.79688 24.0234 7.94531 24.4102 7.94531Z" fill="#FAFF00"/>
</svg>
