<svg width="30" height="30" viewBox="0 0 30 30" fill="none" xmlns="http://www.w3.org/2000/svg">
<path d="M15.0001 0C6.76122 0 0 6.76122 0 15.0001C0 22.0307 4.93336 28.4173 11.4845 30.0002V25.0376C10.8353 25.1797 10.238 25.1838 9.57718 24.9891C8.69071 24.7274 7.97041 24.1369 7.43574 23.2365C7.09493 22.6615 6.49091 22.0381 5.86079 22.0838L5.7063 20.3329C7.06884 20.2161 8.24759 21.163 8.94729 22.3386C9.25811 22.8613 9.61586 23.1678 10.075 23.3033C10.5188 23.434 10.9953 23.3713 11.5506 23.1751C11.69 22.0635 12.1993 21.6474 12.584 21.0614C8.67698 20.4787 7.11988 18.405 6.5019 16.7689C5.68295 14.5966 6.12241 11.8827 7.57055 10.1677C7.59871 10.1343 7.64952 10.0468 7.62983 9.98573C6.96584 7.98003 7.77495 6.32085 7.8047 6.14484C8.571 6.37143 8.69552 5.91687 11.1334 7.39797L11.5547 7.65112C11.731 7.75618 11.6756 7.69621 11.8518 7.68294C12.8697 7.40644 13.9427 7.25378 14.9999 7.24005C16.0651 7.25378 17.1312 7.40644 18.1912 7.69415L18.3276 7.70788C18.3157 7.70605 18.3647 7.69919 18.4469 7.6502C21.4922 5.80563 21.3828 6.40851 22.1994 6.14301C22.2289 6.31925 23.0273 8.00543 22.3704 9.98573C22.2818 10.2586 25.0106 12.7573 23.4981 16.7682C22.8801 18.405 21.3233 20.4778 17.4162 21.0605C17.917 21.8238 18.5187 22.2308 18.5155 23.8055V30.0002C25.0669 28.4173 30 22.0307 30 15.0001C30.0002 6.76122 23.239 0 15.0001 0Z" fill="black"/>
</svg>
