<svg width="22" height="18" viewBox="0 0 22 18" fill="none" xmlns="http://www.w3.org/2000/svg">
<path d="M20 0.0100098H2C0.9 0.0100098 0 0.91001 0 2.01001V5.00001C0 5.55001 0.45 6.00001 1 6.00001C1.55 6.00001 2 5.55001 2 5.00001V2.99001C2 2.44001 2.45 1.99001 3 1.99001H19C19.55 1.99001 20 2.44001 20 2.99001V15.02C20 15.57 19.55 16.02 19 16.02H3C2.45 16.02 2 15.57 2 15.02V13C2 12.45 1.55 12 1 12C0.45 12 0 12.45 0 13V16.01C0 17.1 0.89 17.99 1.98 17.99H20C21.1 17.99 22 17.09 22 15.99V2.01001C22 0.91001 21.1 0.0100098 20 0.0100098ZM10.85 12.15L13.64 9.36001C13.84 9.16001 13.84 8.85001 13.64 8.65001L10.85 5.86001C10.54 5.54001 10 5.76001 10 6.21001V8.00001H1C0.45 8.00001 0 8.45001 0 9.00001C0 9.55001 0.45 10 1 10H10V11.79C10 12.24 10.54 12.46 10.85 12.15Z" fill="#6D6D6D"/>
</svg>
