<svg width="22" height="18" viewBox="0 0 22 18" fill="none" xmlns="http://www.w3.org/2000/svg">
<path d="M2 17.99L20 17.99C21.1 17.99 22 17.09 22 15.99V13C22 12.45 21.55 12 21 12C20.45 12 20 12.45 20 13V15.01C20 15.56 19.55 16.01 19 16.01L3 16.01C2.45 16.01 2 15.56 2 15.01L2 2.97999C2 2.42999 2.45 1.97999 3 1.97999L19 1.97999C19.55 1.97999 20 2.42999 20 2.97999V4.99999C20 5.54999 20.45 5.99999 21 5.99999C21.55 5.99999 22 5.54999 22 4.99999L22 1.98999C22 0.89999 21.11 0.00999069 20.02 0.00999069L2 0.00999069C0.9 0.00999069 0 0.90999 0 2.00999L0 15.99C0 17.09 0.9 17.99 2 17.99ZM11.15 5.84999L8.36 8.63999C8.16 8.83999 8.16 9.14999 8.36 9.34999L11.15 12.14C11.46 12.46 12 12.24 12 11.79L12 9.99999H21C21.55 9.99999 22 9.54999 22 8.99999C22 8.44999 21.55 7.99999 21 7.99999L12 7.99999V6.20999C12 5.75999 11.46 5.53999 11.15 5.84999Z" fill="#6D6D6D"/>
</svg>
