<svg width="30" height="30" viewBox="0 0 30 30" fill="none" xmlns="http://www.w3.org/2000/svg">
<path d="M20.4534 0H9.7215C8.77712 0 8.00861 0.764111 8.00861 1.70308V12.3734C8.00861 13.3124 8.77712 14.0765 9.7215 14.0765H20.4534C21.3978 14.0765 22.1663 13.3124 22.1663 12.3734V1.70308C22.1663 0.764111 21.3978 0 20.4534 0ZM21.2233 12.3734C21.2233 12.7958 20.8777 13.139 20.4534 13.139H9.7215C9.29717 13.139 8.95157 12.7953 8.95157 12.3734V1.70308C8.95157 1.28071 9.29717 0.937559 9.7215 0.937559H20.4534C20.8782 0.937559 21.2233 1.28117 21.2233 1.70308V12.3734Z" fill="#EB1717"/>
<path d="M13.5688 3.30811L13.5684 4.72757H14.996V10.7683H16.6061V3.30811H13.5688Z" fill="#EB1717"/>
<path d="M12.4448 15.9235H1.7129C0.768517 15.9235 0 16.6876 0 17.6265V28.2969C0 29.2359 0.768517 30 1.7129 30H12.4448C13.3892 30 14.1577 29.2359 14.1577 28.2974V17.6261C14.1568 16.6871 13.3887 15.9235 12.4448 15.9235ZM13.2147 28.2974C13.2147 28.7197 12.8691 29.0629 12.4448 29.0629H1.7129C1.28809 29.0629 0.942966 28.7193 0.942966 28.2974V17.6265C0.942966 17.2042 1.28809 16.861 1.7129 16.861H12.4448C12.8691 16.861 13.2147 17.2046 13.2147 17.6265V28.2974Z" fill="#40C102"/>
<path d="M6.82658 25.2832L8.1788 23.8848C8.70874 23.3368 9.07131 22.8868 9.26887 22.5352C9.46547 22.1827 9.56401 21.8142 9.56401 21.4303C9.56401 20.7257 9.31837 20.1693 8.8285 19.76C8.33816 19.3508 7.76861 19.1459 7.12126 19.1459C6.47391 19.1459 5.94019 19.2852 5.52199 19.5622C5.10331 19.8402 4.71905 20.249 4.3678 20.7895L5.71011 21.5798C6.13303 20.9109 6.58047 20.5766 7.05195 20.5766C7.30938 20.5766 7.52108 20.6601 7.68515 20.827C7.85017 20.9943 7.93221 21.2029 7.93221 21.4514C7.93221 21.7008 7.83697 21.9586 7.64743 22.2253C7.4579 22.4921 7.14153 22.8498 6.69787 23.2979L4.49746 25.5396V26.7772H9.78985V25.2832H6.82658V25.2832Z" fill="#40C102"/>
<path d="M28.2871 15.9235H17.5552C16.6103 15.9235 15.8418 16.6876 15.8418 17.6265V28.2969C15.8418 29.2359 16.6103 30 17.5552 30H28.2871C29.2314 30 30 29.2359 30 28.2974V17.6265C30 16.6876 29.2314 15.9235 28.2871 15.9235ZM29.057 28.2974C29.057 28.7197 28.7114 29.0629 28.2871 29.0629H17.5552C17.1304 29.0629 16.7848 28.7193 16.7848 28.2974V17.6265C16.7848 17.2042 17.1308 16.861 17.5552 16.861H28.2871C28.7119 16.861 29.057 17.2046 29.057 17.6265V28.2974Z" fill="white"/>
<path d="M24.5781 25.2422H21.4961L20.9102 27H19.041L22.2168 18.4688H23.8457L27.0391 27H25.1699L24.5781 25.2422ZM21.9707 23.8184H24.1035L23.0312 20.625L21.9707 23.8184Z" fill="white"/>
</svg>
